<?xml version="1.0" encoding="utf-8"?>
<!-- Generator: Adobe Illustrator 25.0.1, SVG Export Plug-In . SVG Version: 6.00 Build 0)  -->
<svg version="1.1"
	 id="svg8" xmlns:cc="http://creativecommons.org/ns#" xmlns:dc="http://purl.org/dc/elements/1.1/" xmlns:inkscape="http://www.inkscape.org/namespaces/inkscape" xmlns:rdf="http://www.w3.org/1999/02/22-rdf-syntax-ns#" xmlns:sodipodi="http://sodipodi.sourceforge.net/DTD/sodipodi-0.dtd" xmlns:svg="http://www.w3.org/2000/svg"
	 xmlns="http://www.w3.org/2000/svg" xmlns:xlink="http://www.w3.org/1999/xlink" x="0px" y="0px" viewBox="0 0 32.9 47"
	 style="enable-background:new 0 0 32.9 47;" xml:space="preserve">
<style type="text/css">
	.st0{fill:#8F8F8F;}
	.st1{fill:#26ABE8;}
</style>
<sodipodi:namedview  bordercolor="#666666" borderopacity="1.0" fit-margin-bottom="0.5" fit-margin-left="0.5" fit-margin-right="0.5" fit-margin-top="0.5" id="base" inkscape:current-layer="layer1" inkscape:cx="194.23024" inkscape:cy="80.088255" inkscape:document-rotation="0" inkscape:document-units="px" inkscape:pageopacity="0" inkscape:pageshadow="2" inkscape:window-height="900" inkscape:window-maximized="0" inkscape:window-width="1440" inkscape:window-x="0" inkscape:window-y="0" inkscape:zoom="1.2370476" lock-margins="true" pagecolor="#00ffff" showgrid="false" units="px">
	</sodipodi:namedview>
<path id="path831" class="st0" d="M6.8,3C7,3,7.1,3,7.1,2.9l0.1,0l0,0l0,0l0,0l0,0c0,0,0,0,0,0c0,0,0.1-0.1,0.1-0.1l0,0l0,0l0,0
	c0,0,0,0,0,0c0,0,0,0,0,0l0,0l0,0c0,0,0-0.1,0.1-0.1l0,0c0-0.1,0.1-0.2,0.1-0.3l0,0V2.2l0,0c0-0.1-0.1-0.2-0.1-0.3c0,0,0,0,0,0l0,0
	c0,0,0-0.1-0.1-0.1c0,0,0,0,0,0l0,0c0,0,0,0,0,0l0,0l0,0l0,0l0,0C7.2,1.7,7.1,1.6,7,1.6c0,0,0,0,0,0l0,0c0,0,0,0,0-0.1c0,0,0,0,0,0
	l0,0v0c0,0,0-0.1,0-0.1v0c0,0,0,0,0,0l0,0l0,0c0,0,0,0,0,0h0c0,0,0.1,0,0.1,0h0l0,0h0l0,0h0.1l0,0c0,0,0,0,0.1,0c0,0,0,0,0.1,0
	c0,0,0-0.1,0-0.1v0c0,0,0-0.1-0.1-0.1h0l0,0c0,0,0,0,0,0C7.2,1,7.1,1,7,1h0l0,0c0,0,0,0,0,0l0,0l0,0l0,0c0-0.1,0-0.3,0-0.4l0,0
	c0,0,0,0-0.1,0l0,0h0l0,0l0,0l0,0h0c0,0,0,0,0,0.1c0,0,0,0.1,0,0.1v0c0,0,0,0,0,0v0l0,0c0,0.1,0,0.1,0,0.2c0,0,0,0,0,0l0,0l0,0l0,0
	h0l0,0h0C6.5,1,6.5,1,6.4,1c0,0-0.1,0-0.1,0l0,0c0,0,0,0,0,0l0,0l0,0v0l0,0c0,0,0,0,0,0c0,0,0,0,0,0.1c0,0,0,0,0,0.1c0,0,0,0,0,0
	l0,0c0,0,0.1,0,0.1,0c0,0,0,0,0,0l0,0c0.1,0,0.1,0,0.2,0h0c0,0,0,0,0,0l0,0h0l0,0l0,0v0l0,0c0,0.1,0,0.2,0,0.2l0,0
	c-0.1,0-0.1,0.1-0.2,0.1v0l0,0l0,0c0,0,0,0,0,0l0,0h0c0,0-0.1,0.1-0.1,0.1l0,0l0,0l0,0c0,0,0,0,0,0l0,0l0,0c0,0,0,0.1-0.1,0.1l0,0
	c0,0.1-0.1,0.2-0.1,0.3l0,0c0,0.2,0,0.3,0.1,0.5l0,0l0,0l0,0l0,0c0,0,0,0,0,0l0,0c0,0,0,0,0,0c0,0,0,0,0,0l0,0l0,0c0,0,0,0,0,0l0,0
	l0,0c0,0,0,0,0,0c0,0,0,0,0,0l0,0c0,0,0,0,0,0l0,0c0,0,0,0,0,0l0,0h0C6.5,3,6.7,3,6.8,3"/>
<path id="path833" class="st0" d="M9.5,10.5c-0.3,0-0.5-0.2-0.5-0.3c0-0.2,0.2-0.3,0.5-0.3c0.3,0,0.5,0.2,0.5,0.3
	C10,10.3,9.8,10.5,9.5,10.5z M6.8,10.5c-0.3,0-0.5-0.2-0.5-0.3c0-0.2,0.2-0.3,0.5-0.3c0.3,0,0.5,0.2,0.5,0.3
	C7.3,10.3,7.1,10.5,6.8,10.5z M4.1,10.5c-0.3,0-0.5-0.2-0.5-0.3c0-0.2,0.2-0.3,0.5-0.3c0.3,0,0.5,0.2,0.5,0.3
	C4.7,10.3,4.4,10.5,4.1,10.5z M13.1,7C13.1,7,13.1,7,13.1,7c0-0.1,0-0.2-0.1-0.2l0,0c0,0,0,0,0,0l0,0l0,0l0,0l0,0h0l0,0l0,0l0,0l0,0
	c0,0,0,0,0,0l0,0c0,0,0,0,0,0l0,0l-0.1,0h0l0,0l-0.1,0l0,0h0l0,0c0,0-0.1,0-0.1,0c0,0-0.1,0.1-0.1,0.1l0,0l0,0l0,0l0,0l0,0l0,0l0,0
	l0,0c0,0.1-0.1,0.1-0.1,0.2c-0.1,0.2-0.2,0.5-0.2,0.8l0,0l0,0l0,0l0,0c0,0,0,0,0,0c0,0,0-0.1,0-0.1l0,0l0,0l0,0l0,0l0,0
	c0,0,0-0.1-0.1-0.1l0,0l0,0l0,0l0,0l0,0l0,0l0,0l-0.1,0c0,0-0.1,0-0.1,0h0l0,0h0l0,0h0l0,0c0,0,0,0-0.1,0c0,0-0.1,0-0.1,0.1l0,0l0,0
	l0,0l0,0l0,0l0,0l0,0l-0.1,0.1l0,0c0,0,0,0,0,0.1c0,0,0,0.1,0,0.1c0,0,0,0,0,0v0c0,0,0,0.1,0,0.1l0,0v0c0,0.1,0,0.1,0.1,0.2l0,0l0,0
	c0,0,0,0,0,0.1l0,0c0,0,0,0,0.1,0.1c0,0,0,0,0,0c0.1,0,0.1,0,0.2,0h0c0,0,0,0,0.1,0h0l0,0h0l0,0l0,0l0,0l0,0l0,0.1
	c0,0.1,0,0.2-0.1,0.3l0,0c0,0,0,0.1-0.1,0.1l0,0l0,0l0,0l0,0l0,0l0,0l0,0l0,0l0,0c0,0,0,0.1-0.1,0.1l0,0l0,0l0,0l0,0l0,0l0,0l0,0
	l0,0l0,0l0,0l0,0l0,0c0,0,0,0,0,0l0,0l0,0l0,0l0,0l0,0c-0.1,0.1-0.3,0.2-0.5,0.2h-0.2c-0.1,0-0.3-0.1-0.4-0.1l0,0l0,0l0,0l0,0
	c0,0,0,0,0,0l0,0l0,0l0,0l0,0c0,0,0,0,0,0l0,0c0,0,0,0,0,0l0,0l0,0c0,0,0,0,0,0l0,0l0,0c0,0,0,0,0,0l0,0C10.1,9,10.1,9,10,9l0,0l0,0
	l0,0l0,0l0,0l0,0h0l0,0c0,0,0,0,0,0c0,0,0,0,0,0l0,0c0,0,0-0.1-0.1-0.1L9.8,8.6l0,0C9.8,8.5,9.7,8.3,9.7,8.2c0,0,0,0,0,0l0,0l0,0
	l0,0h0l0,0l0,0l0,0l0,0l0,0l0,0l0,0l0,0l0,0l0,0l0,0c0,0,0,0,0,0l0,0c0,0,0.1,0,0.1,0.1c0.1,0,0.1,0.1,0.2,0.1c0,0,0.1,0,0.1,0l0,0
	h0.1l0.1,0c0,0,0.1,0,0.1,0l0,0l0,0l0,0c0,0,0,0,0,0l0,0l0,0l0,0c0,0,0.1-0.1,0.1-0.1l0-0.1V7.9l0,0v0l0,0V7.8c0-0.1,0-0.1-0.1-0.2
	c0,0,0,0-0.1-0.1l0,0l0,0l0,0l0,0c0,0-0.1-0.1-0.1-0.1l0,0h0l0,0c0,0-0.1,0-0.1,0c-0.1,0-0.1,0-0.2,0.1l0,0c-0.1,0-0.1,0.1-0.2,0.1
	l0,0l0,0l0,0l0,0l0,0l0,0l0,0l0,0l0,0l0,0c0.1-0.1,0.1-0.3,0.2-0.4v0l0,0c0,0,0-0.1,0-0.1l0,0l0,0c0-0.1,0-0.1-0.1-0.2l0,0l0,0
	c0,0,0-0.1-0.1-0.1l0,0l0,0l0,0c0,0,0,0-0.1,0l0,0l0,0c0,0,0,0-0.1,0l-0.1,0h0l0,0c0,0-0.1,0-0.1,0l-0.1,0c0,0-0.1,0-0.1,0.1
	c0,0,0,0,0,0c0,0,0,0,0,0c0,0,0,0-0.1,0.1l0,0l0,0l0,0l0,0c0,0.1-0.1,0.1-0.1,0.2l0,0v0.1l0,0v0c0,0.2,0.1,0.3,0.2,0.4l0,0l0,0l0,0
	h0l0,0l0,0l0,0c-0.1,0-0.1-0.1-0.2-0.1c0,0-0.1,0-0.1-0.1l-0.1,0h0l0,0H8.8c0,0-0.1,0-0.1,0c0,0-0.1,0-0.1,0.1l0,0l0,0l0,0l0,0
	c0,0,0,0,0,0l0,0l0,0l0,0l0,0l0,0l0,0l0,0c0,0.1-0.1,0.1-0.1,0.2v0l0,0v0l0,0v0c0,0,0,0.1,0,0.1c0,0.1,0.1,0.1,0.1,0.2
	c0,0,0.1,0.1,0.1,0.1c0,0,0.1,0,0.1,0c0,0,0.1,0,0.1,0l0,0l0,0c0.1,0,0.1,0,0.2-0.1l0,0c0,0,0.1,0,0.1-0.1l0,0l0.1,0l0,0l0,0l0,0
	c0,0,0,0,0,0l0,0v0l0,0c0,0.2-0.1,0.4-0.2,0.6l0,0l0,0l0,0l0,0l0,0c0,0,0,0,0,0l0,0l0,0c0,0,0,0,0,0l0,0l0,0c0,0,0,0,0,0l0,0l0,0
	C9.1,8.9,9,9,9,9l0,0l0,0c0,0,0,0,0,0c0,0,0,0,0,0l0,0c0,0,0,0,0,0l0,0l0,0v0l0,0l0,0l0,0l0,0c0,0,0,0,0,0c0,0,0,0,0,0l0,0l0,0
	c0,0,0,0,0,0h0l0,0c0,0,0,0,0,0l0,0l0,0C8.7,9.2,8.5,9.3,8.4,9.3h0l0,0h0l0,0h0l0,0h0l0,0h0l0,0H8.2l0,0h0l0,0h0l0,0h0l0,0h0l0,0h0
	c0,0-0.1,0-0.1,0l0,0c-0.1,0-0.1,0-0.2-0.1l0,0c0,0-0.1,0-0.1-0.1c0,0,0,0,0,0l0,0l0,0c0,0-0.1-0.1-0.1-0.1l0,0l0,0l0,0c0,0,0,0,0,0
	l0,0c0,0,0,0,0,0l0,0l0,0l0,0c0-0.1-0.1-0.1-0.1-0.2l0,0l0,0C7.1,8.5,7.1,8.4,7.1,8.3v0l0,0c0,0,0,0,0,0l0,0l0,0l0,0l0,0h0
	c0.1,0.1,0.2,0.1,0.4,0.2l0,0l0,0h0c0,0,0.1,0,0.1,0c0,0,0,0,0.1,0l0,0l0,0l0,0c0,0,0,0,0,0l0,0c0,0,0,0,0,0c0,0,0,0,0,0l0,0l0,0
	l0,0l0,0l0,0c0,0,0,0,0,0c0,0,0-0.1,0-0.1l0,0v0l0,0c0,0,0-0.1,0-0.1c0,0,0,0,0-0.1c0,0,0,0,0-0.1c0,0,0,0,0,0l0,0c0,0,0,0,0-0.1
	l0,0l0,0c0,0,0,0,0,0l0,0c0,0,0,0,0,0l0,0l0,0c0,0-0.1,0-0.1,0h0l0,0H7.5l0,0h0c-0.1,0-0.1,0-0.2,0.1c0,0,0,0,0,0l0,0
	c0,0-0.1,0.1-0.1,0.1l0,0l0,0h0l0,0l0,0v0l0,0c0.1-0.1,0.1-0.3,0.1-0.4v0l0,0c0,0,0,0,0-0.1v0c0-0.1-0.1-0.2-0.1-0.3l0,0l0,0l0,0
	l0,0l0,0l0,0l0,0c0,0-0.1,0-0.1,0l-0.1,0h0l0,0h0l0,0h0l-0.1,0c0,0-0.1,0-0.1,0.1c0,0,0,0,0,0l0,0l0,0l0,0c0,0,0,0,0,0l0,0l0,0l0,0
	l0,0l0,0h0l0,0l0,0c0,0.1-0.1,0.2-0.1,0.3c0,0.2,0.1,0.4,0.2,0.5l0,0l0,0l0,0l0,0c0,0,0,0-0.1,0l0,0l0,0l0,0l0,0
	C6.3,7.5,6.2,7.5,6.1,7.4H6.1c0,0-0.1,0-0.1,0l0,0l0,0l0,0l0,0l0,0l0,0l0,0l0,0l0,0l0,0c0,0,0,0,0,0l0,0c0,0,0,0,0,0c0,0,0,0,0,0
	l0,0c0,0,0,0,0,0l0,0l0,0l0,0c0,0,0,0,0,0.1l0,0v0l0,0c0,0.1,0,0.2,0,0.2c0,0.1,0,0.1,0.1,0.1l0,0l0,0c0,0,0,0,0.1,0.1
	c0.1,0,0.1,0,0.2,0.1h0l0,0h0l0,0h0c0.1,0,0.2,0,0.2-0.1l0,0c0,0,0,0,0.1,0c0,0,0.1,0,0.1,0h0l0,0l0,0l0,0v0l0,0l0,0
	c0,0.2-0.1,0.3-0.1,0.4c0,0,0,0.1-0.1,0.1l0,0h0l0,0c0,0.1-0.1,0.1-0.1,0.2l0,0l0,0l0,0c0,0,0,0,0,0l0,0l0,0l0,0l0,0l0,0l0,0l0,0
	l0,0l0,0h0l0,0h0l0,0C6,9.1,6,9.2,5.9,9.2l0,0c-0.1,0-0.2,0.1-0.3,0.1h0l-0.1,0c-0.1,0-0.2,0-0.3,0h0v0h0C5,9.3,4.9,9.2,4.8,9.1
	c0,0,0,0,0,0c0,0,0,0,0,0l0,0l0,0l0,0l0,0l0,0l0,0c0,0,0,0-0.1-0.1l0,0l0,0c0,0-0.1-0.1-0.1-0.1l0,0l0,0l0,0l0,0c0,0,0,0,0,0l0,0
	c0,0,0,0,0,0h0c0,0-0.1-0.1-0.1-0.1C4.3,8.5,4.3,8.4,4.3,8.3v0l0,0c0,0,0-0.1,0-0.1l0,0v0l0,0v0l0,0l0,0h0l0,0h0l0,0l0,0l0,0l0,0
	l0,0l0,0l0,0h0c0,0,0.1,0,0.1,0.1c0.1,0,0.1,0.1,0.2,0.1l0.1,0h0l0,0h0.1c0,0,0.1,0,0.1,0c0,0,0.1,0,0.1-0.1c0,0,0,0,0,0l0,0l0,0
	l0,0l0-0.1l0,0l0,0c0,0,0-0.1,0-0.2V7.9l0,0v0h0v0l0,0l0,0l0,0v0c0,0,0,0,0-0.1l0-0.1l0,0l0,0l0,0l0,0l0,0l0,0c0,0,0,0,0,0l0,0l0,0
	l0,0l0,0l0,0l0,0c-0.1,0-0.1,0-0.2-0.1c0,0-0.1,0-0.1,0c-0.1,0-0.1,0-0.2,0.1c-0.1,0-0.1,0.1-0.2,0.1l0,0l0,0l0,0l0,0l0,0v0l0,0
	c0.1-0.1,0.2-0.3,0.2-0.5v0c0,0,0-0.1,0-0.1c0,0,0-0.1-0.1-0.1c0,0,0,0-0.1-0.1c0,0,0,0-0.1-0.1l0,0l0,0c0,0-0.1,0-0.1,0l-0.1,0h0
	c0,0-0.1,0-0.1,0c0,0-0.1,0-0.1,0.1l0,0l0,0l0,0l0,0l0,0l0,0l0,0c0,0,0,0,0,0l0,0l0,0l0,0l0,0c0,0,0,0.1-0.1,0.1c0,0,0,0.1,0,0.1v0
	l0,0v0.1l0,0v0c0,0.1,0,0.1,0.1,0.2l0,0l0,0c0,0.1,0.1,0.1,0.1,0.2c0,0,0,0,0,0.1l0,0v0l0,0l0,0l0,0l0,0C3.7,7.5,3.6,7.5,3.5,7.5
	H3.4l0,0l0,0H3.3c0,0,0,0-0.1,0l0,0l0,0c0,0-0.1,0.1-0.1,0.1v0C3,7.7,3,7.7,3,7.8c0,0,0,0,0,0C3,7.9,3,8,3,8c0,0,0,0.1,0.1,0.1l0,0
	l0,0l0,0l0,0l0,0c0,0,0,0,0,0l0,0l0,0l0,0l0.1,0c0,0,0.1,0,0.1,0h0.1c0.1,0,0.2,0,0.2-0.1l0,0l0,0l0,0l0,0c0,0,0,0,0,0l0,0l0,0l0,0
	l0,0l0,0l0,0c0,0,0,0,0,0l0,0l0,0c0,0,0,0,0,0c0,0,0,0,0,0l0,0l0,0h0l0,0c0,0,0,0,0,0c0,0,0,0.1,0,0.1l0,0c0,0.2-0.1,0.3-0.1,0.5
	l0,0c0,0,0,0,0,0.1l0,0l0,0.1c0,0,0,0,0,0c0,0,0,0,0,0l0,0l0,0l0,0l0,0l0,0l0,0l0,0l0,0c0,0-0.1,0.1-0.1,0.1c0,0,0,0,0,0
	c0,0,0,0,0,0c0,0,0,0,0,0l0,0l0,0l0,0l0,0l0,0l0,0l0,0l0,0l0,0c0,0-0.1,0-0.1,0.1C3.2,9.3,3.1,9.3,3,9.3H2.8c-0.1,0-0.2,0-0.3-0.1
	c-0.1,0-0.1-0.1-0.2-0.1l0,0h0l0,0l0,0l0,0v0l0,0h0l0,0l0,0l0,0l0,0l0,0l0,0l0,0l0,0l0,0c0,0,0,0,0,0h0l0,0l0,0l0,0l0,0
	c0,0,0,0-0.1-0.1l0,0l0,0l0,0l0,0l0,0l0,0l0,0l0,0l0,0l0,0l0,0l0,0C2,8.7,1.9,8.6,1.9,8.4v0l0,0l0,0l0,0l0,0h0l0.1,0h0l0,0
	c0.1,0,0.1,0,0.2,0c0,0,0.1,0,0.1-0.1l0-0.1l0,0c0,0,0,0,0,0l0,0l0,0c0,0,0,0,0,0l0,0l0,0l0,0c0,0,0,0,0,0c0,0,0-0.1,0-0.2v0l0,0
	c0-0.1,0-0.2-0.1-0.3l0,0c0,0,0,0-0.1-0.1l0,0l0,0l0,0l0,0l0,0l0,0l0,0v0l0,0c0,0-0.1,0-0.1,0l-0.1,0H2c0,0-0.1,0-0.1,0l0,0l0,0
	c0,0,0,0-0.1,0l0,0l0,0l0,0l0,0l0,0l0,0c0,0,0,0,0,0l0,0l0,0l0,0l0,0c0,0.1-0.1,0.2-0.1,0.2l0,0l0,0l0,0h0l0,0c0,0,0-0.1,0-0.1
	c0-0.2-0.1-0.4-0.2-0.6c0-0.1-0.1-0.2-0.1-0.2l0,0l0,0c0,0-0.1-0.1-0.1-0.1l0,0c0,0,0,0,0,0C1.1,6.7,1,6.7,1,6.7h0l0,0H0.8l0,0h0
	l0,0c0,0-0.1,0-0.1,0.1c0,0,0,0,0,0c0,0,0,0,0,0l0,0c0,0,0,0,0,0c0,0,0,0,0,0c0,0,0,0.1-0.1,0.1c0,0,0,0.1,0,0.2c0,0,0,0,0,0.1l0,0
	c0,0.3,0.2,0.6,0.4,0.9l0,0C1,8.1,1,8.2,1.1,8.4l0,0c0,0.1,0.1,0.1,0.1,0.2l0,0l0,0l0,0C1.3,8.8,1.4,9,1.5,9.2v0c0,0,0,0.1,0.1,0.1
	l0,0C1.8,10,1.9,10.6,2,11.3l0,0l0,0l0,0l0,0l0,0h9.4l0,0c0,0,0,0,0,0l0,0l0,0c0,0,0,0,0,0l0,0c0-0.1,0-0.1,0-0.2l0,0
	c0.1-0.9,0.4-1.7,0.8-2.5l0,0l0,0c0-0.1,0.1-0.1,0.1-0.2l0,0c0,0,0,0,0-0.1l0,0c0,0,0-0.1,0-0.1c0,0,0,0,0-0.1l0,0
	c0-0.1,0.1-0.1,0.1-0.2l0,0c0-0.1,0.1-0.2,0.1-0.3l0,0c0-0.1,0.1-0.1,0.1-0.2l0,0l0,0C13.1,7.3,13.1,7.2,13.1,7L13.1,7L13.1,7
	L13.1,7"/>
<path id="path835" class="st0" d="M1.9,5.9c0,0.3-0.2,0.5-0.4,0.5C1.2,6.4,1,6.2,1,5.9c0-0.3,0.2-0.5,0.4-0.5
	C1.7,5.4,1.9,5.6,1.9,5.9"/>
<path id="path837" class="st0" d="M2.6,4.8c0,0.2-0.2,0.4-0.4,0.4C2,5.2,1.8,5,1.8,4.8c0-0.2,0.2-0.4,0.4-0.4
	C2.4,4.4,2.6,4.6,2.6,4.8"/>
<path id="path839" class="st0" d="M3.5,4.1c0,0.2-0.2,0.4-0.3,0.4C3,4.4,2.9,4.3,2.9,4.1c0-0.2,0.1-0.4,0.3-0.4S3.5,3.9,3.5,4.1"/>
<path id="path841" class="st0" d="M4.5,3.5c0,0.2-0.1,0.3-0.3,0.3c-0.2,0-0.3-0.1-0.3-0.3c0-0.2,0.1-0.3,0.3-0.3
	C4.4,3.2,4.5,3.4,4.5,3.5"/>
<path id="path843" class="st0" d="M5.5,3.4c0,0.2-0.1,0.3-0.3,0.3c-0.2,0-0.3-0.1-0.3-0.3c0-0.2,0.1-0.3,0.3-0.3
	C5.4,3.1,5.5,3.2,5.5,3.4"/>
<path id="path845" class="st0" d="M6.3,3.6c0,0.1-0.1,0.3-0.2,0.3c-0.1,0-0.2-0.1-0.2-0.3c0-0.1,0.1-0.3,0.2-0.3
	C6.2,3.4,6.3,3.5,6.3,3.6"/>
<path id="path847" class="st0" d="M5.7,4.2c0,0.1-0.1,0.3-0.2,0.3c-0.1,0-0.2-0.1-0.2-0.3C5.2,4.1,5.3,4,5.5,4
	C5.6,4,5.7,4.1,5.7,4.2"/>
<path id="path849" class="st0" d="M4.7,5.8c0,0.2-0.2,0.4-0.4,0.4c-0.2,0-0.4-0.2-0.4-0.4c0-0.2,0.2-0.4,0.4-0.4
	C4.5,5.4,4.7,5.6,4.7,5.8"/>
<path id="path851" class="st0" d="M7.2,5.8c0,0.2-0.2,0.4-0.4,0.4c-0.2,0-0.4-0.2-0.4-0.4c0-0.2,0.2-0.4,0.4-0.4
	C7,5.4,7.2,5.6,7.2,5.8"/>
<path id="path853" class="st0" d="M7.1,4.7c0,0.2-0.1,0.3-0.3,0.3c-0.2,0-0.3-0.1-0.3-0.3c0-0.2,0.1-0.3,0.3-0.3
	C7,4.4,7.1,4.5,7.1,4.7"/>
<path id="path855" class="st0" d="M7,3.8C7,4,6.9,4.1,6.8,4.1C6.7,4.1,6.6,4,6.6,3.8c0-0.1,0.1-0.2,0.2-0.2C6.9,3.6,7,3.7,7,3.8"/>
<path id="path857" class="st0" d="M5,4.9C5,5,4.9,5.2,4.7,5.2C4.6,5.2,4.5,5,4.5,4.9c0-0.2,0.1-0.3,0.3-0.3C4.9,4.5,5,4.7,5,4.9"/>
<path id="path859" class="st0" d="M11.7,5.9c0,0.3,0.2,0.5,0.4,0.5c0.2,0,0.4-0.2,0.4-0.5c0-0.3-0.2-0.5-0.4-0.5
	C11.9,5.4,11.7,5.6,11.7,5.9"/>
<path id="path861" class="st0" d="M11,4.8c0,0.2,0.2,0.4,0.4,0.4c0.2,0,0.4-0.2,0.4-0.4c0-0.2-0.2-0.4-0.4-0.4
	C11.2,4.4,11,4.6,11,4.8"/>
<path id="path863" class="st0" d="M10.1,4.1c0,0.2,0.2,0.4,0.3,0.4c0.2,0,0.3-0.2,0.3-0.4c0-0.2-0.1-0.4-0.3-0.4
	C10.2,3.7,10.1,3.9,10.1,4.1"/>
<path id="path865" class="st0" d="M9.1,3.5c0,0.2,0.1,0.3,0.3,0.3c0.2,0,0.3-0.1,0.3-0.3c0-0.2-0.1-0.3-0.3-0.3
	C9.2,3.2,9.1,3.4,9.1,3.5"/>
<path id="path867" class="st0" d="M8.1,3.4c0,0.2,0.1,0.3,0.3,0.3c0.1,0,0.3-0.1,0.3-0.3c0-0.2-0.1-0.3-0.3-0.3
	C8.3,3.1,8.1,3.2,8.1,3.4"/>
<path id="path869" class="st0" d="M7.3,3.6c0,0.1,0.1,0.3,0.2,0.3c0.1,0,0.2-0.1,0.2-0.3c0-0.1-0.1-0.3-0.2-0.3
	C7.4,3.4,7.3,3.5,7.3,3.6"/>
<path id="path871" class="st0" d="M7.9,4.2c0,0.1,0.1,0.3,0.2,0.3c0.1,0,0.2-0.1,0.2-0.3C8.4,4.1,8.3,4,8.2,4C8,4,7.9,4.1,7.9,4.2"
	/>
<path id="path873" class="st0" d="M8.9,5.8c0,0.2,0.2,0.4,0.4,0.4c0.2,0,0.4-0.2,0.4-0.4c0-0.2-0.2-0.4-0.4-0.4
	C9.1,5.4,8.9,5.6,8.9,5.8"/>
<path id="path875" class="st0" d="M8.6,4.9c0,0.2,0.1,0.3,0.3,0.3C9,5.2,9.2,5,9.2,4.9c0-0.2-0.1-0.3-0.3-0.3
	C8.7,4.5,8.6,4.7,8.6,4.9"/>
<path id="path877" class="st0" d="M25.6,11c0,0.1-0.1,0.2-0.2,0.2c-0.1,0-0.2-0.1-0.2-0.2c0-0.1,0.1-0.2,0.2-0.2
	C25.5,10.8,25.6,10.9,25.6,11"/>
<path id="path879" class="st0" d="M25.1,10.6c-0.2,0.2-0.7-0.1-0.9-0.6c-0.3-0.6-0.2-1.4-0.2-1.4S24.6,9,25,9.4
	C25.4,9.9,25.4,10.4,25.1,10.6"/>
<path id="path881" class="st0" d="M23.4,9.9c-0.3,0.1-0.7-0.3-0.8-0.9c-0.1-0.6,0.1-1.5,0.1-1.5s0.8,0.7,1,1.2
	C23.8,9.3,23.6,9.8,23.4,9.9"/>
<path id="path883" class="st0" d="M23.9,10.3c0,0.1-0.1,0.1-0.2,0.1c-0.1,0-0.1-0.1-0.1-0.2c0-0.1,0.1-0.1,0.2-0.1
	C23.8,10.1,23.9,10.2,23.9,10.3"/>
<path id="path885" class="st0" d="M21.8,8.8c-0.3,0-0.5-0.3-0.5-0.8c0-0.6,0.5-1.3,0.5-1.3s0.5,0.7,0.5,1.2
	C22.3,8.5,22.1,8.8,21.8,8.8"/>
<path id="path887" class="st0" d="M22.4,9.6c-0.1,0.1-0.2,0.1-0.3,0c-0.1-0.1-0.1-0.2,0-0.3c0.1-0.1,0.2-0.1,0.3,0
	C22.4,9.4,22.4,9.5,22.4,9.6"/>
<path id="path889" class="st0" d="M21.1,8.6c-0.1,0-0.2,0-0.2-0.1c0-0.1,0-0.1,0.1-0.2c0.1,0,0.2,0,0.2,0
	C21.2,8.5,21.2,8.6,21.1,8.6"/>
<path id="path891" class="st0" d="M20.4,6.9c-0.1,0-0.2-0.1-0.3-0.2c0-0.1,0.1-0.2,0.2-0.2c0.1,0,0.2,0.1,0.2,0.2
	C20.6,6.8,20.6,6.9,20.4,6.9"/>
<path id="path893" class="st0" d="M20.8,5.6c-0.1,0-0.2-0.1-0.2-0.2c0-0.1,0.1-0.2,0.3-0.2c0.1,0,0.2,0.1,0.2,0.2
	C21.1,5.5,21,5.6,20.8,5.6"/>
<path id="path895" class="st0" d="M21.7,9.7c-0.1,0.3-0.4,0.4-0.9,0.3c-0.6-0.2-1.2-1-1.2-1s0.9-0.3,1.4-0.1
	C21.6,9,21.8,9.4,21.7,9.7"/>
<path id="path897" class="st0" d="M23.2,10.4c0,0.3-0.2,0.5-0.8,0.6C21.8,11,21,10.6,21,10.6s0.7-0.5,1.3-0.6
	C22.8,9.9,23.2,10.1,23.2,10.4"/>
<path id="path899" class="st0" d="M24.5,10.7c0.1,0.2,0,0.5-0.5,0.7c-0.5,0.2-1.3,0.1-1.3,0.1s0.4-0.7,0.9-0.9
	C24.1,10.5,24.4,10.5,24.5,10.7"/>
<path id="path901" class="st0" d="M20.7,8.2c-0.2,0.2-0.5,0.1-0.8-0.2c-0.4-0.4-0.6-1.3-0.6-1.3s0.8,0.2,1.2,0.6
	C20.8,7.7,20.9,8.1,20.7,8.2"/>
<path id="path903" class="st0" d="M21,7.3c-0.2,0-0.3-0.3-0.2-0.7c0.1-0.5,0.6-1,0.6-1s0.2,0.7,0.1,1.1C21.3,7.1,21.1,7.3,21,7.3"/>
<path id="path905" class="st0" d="M20.7,4.9c-0.2,0-0.3-0.2-0.3-0.6c0-0.4,0.4-1,0.4-1s0.3,0.5,0.3,0.9C21,4.7,20.9,4.9,20.7,4.9"/>
<path id="path907" class="st0" d="M21.2,4.8c-0.1-0.1-0.1-0.3,0.1-0.5c0.3-0.3,0.7-0.4,0.7-0.4S22,4.4,21.8,4.6
	C21.6,4.9,21.3,4.9,21.2,4.8"/>
<path id="path909" class="st0" d="M22.2,3.2c-0.1-0.1-0.1-0.3,0.1-0.4c0.2-0.2,0.7-0.3,0.7-0.3S22.8,2.8,22.6,3
	C22.5,3.2,22.3,3.3,22.2,3.2"/>
<path id="path911" class="st0" d="M20.3,6.3c-0.2,0.1-0.4-0.1-0.6-0.5c-0.2-0.5,0-1.2,0-1.2s0.5,0.5,0.7,0.9
	C20.6,5.9,20.5,6.2,20.3,6.3"/>
<path id="path913" class="st0" d="M21.3,3.9c-0.2-0.1-0.2-0.3,0-0.6c0.2-0.4,0.7-0.7,0.7-0.7s0,0.6-0.1,0.9
	C21.7,3.9,21.4,4,21.3,3.9"/>
<path id="path915" class="st0" d="M25.6,10.6c0.2,0.2,0.7-0.1,0.9-0.6c0.3-0.6,0.2-1.4,0.2-1.4S26.1,9,25.8,9.4
	C25.4,9.9,25.4,10.4,25.6,10.6"/>
<path id="path917" class="st0" d="M27.4,9.9c0.3,0.1,0.7-0.3,0.8-0.9c0.1-0.6-0.1-1.5-0.1-1.5s-0.8,0.7-1,1.2
	C27,9.3,27.1,9.8,27.4,9.9"/>
<path id="path919" class="st0" d="M26.9,10.3c0,0.1,0.1,0.1,0.2,0.1c0.1,0,0.1-0.1,0.1-0.2c0-0.1-0.1-0.1-0.2-0.1
	C26.9,10.1,26.9,10.2,26.9,10.3"/>
<path id="path921" class="st0" d="M29,8.8c0.3,0,0.5-0.3,0.5-0.8c0-0.6-0.5-1.3-0.5-1.3S28.5,7.5,28.5,8C28.5,8.5,28.7,8.8,29,8.8"
	/>
<path id="path923" class="st0" d="M28.4,9.6c0.1,0.1,0.2,0.1,0.3,0c0.1-0.1,0.1-0.2,0-0.3c-0.1-0.1-0.2-0.1-0.3,0
	C28.3,9.4,28.3,9.5,28.4,9.6"/>
<path id="path925" class="st0" d="M29.6,8.6c0.1,0,0.2,0,0.2-0.1c0-0.1,0-0.1-0.1-0.2c-0.1,0-0.2,0-0.2,0
	C29.6,8.5,29.6,8.6,29.6,8.6"/>
<path id="path927" class="st0" d="M30.3,6.9c0.1,0,0.2-0.1,0.2-0.2c0-0.1-0.1-0.2-0.2-0.2c-0.1,0-0.2,0.1-0.2,0.2
	C30.1,6.8,30.2,6.9,30.3,6.9"/>
<path id="path929" class="st0" d="M29.9,5.6c0.1,0,0.2-0.1,0.2-0.2c0-0.1-0.1-0.2-0.3-0.2c-0.1,0-0.2,0.1-0.2,0.2
	C29.7,5.5,29.8,5.6,29.9,5.6"/>
<path id="path931" class="st0" d="M29,9.7c0.1,0.3,0.4,0.4,0.9,0.3c0.6-0.2,1.2-1,1.2-1s-0.9-0.3-1.4-0.1C29.2,9,28.9,9.4,29,9.7"/>
<path id="path933" class="st0" d="M27.6,10.4c0,0.3,0.2,0.5,0.8,0.6c0.6,0.1,1.5-0.4,1.5-0.4s-0.7-0.5-1.3-0.6
	C28,9.9,27.6,10.1,27.6,10.4"/>
<path id="path935" class="st0" d="M26.2,10.7c-0.1,0.2,0,0.5,0.5,0.7c0.5,0.2,1.3,0.1,1.3,0.1s-0.4-0.7-0.9-0.9
	C26.7,10.5,26.3,10.5,26.2,10.7"/>
<path id="path937" class="st0" d="M30,8.2c0.2,0.2,0.5,0.1,0.8-0.2c0.4-0.4,0.6-1.3,0.6-1.3S30.7,7,30.3,7.3
	C29.9,7.7,29.9,8.1,30,8.2"/>
<path id="path939" class="st0" d="M29.8,7.3C30,7.2,30.1,7,30,6.6c-0.1-0.5-0.6-1-0.6-1s-0.2,0.7-0.1,1.1
	C29.4,7.1,29.6,7.3,29.8,7.3"/>
<path id="path941" class="st0" d="M30.1,4.9c0.2,0,0.3-0.2,0.3-0.6c0-0.4-0.4-1-0.4-1S29.7,4,29.7,4.3C29.7,4.7,29.9,4.9,30.1,4.9"
	/>
<path id="path943" class="st0" d="M29.5,4.8c0.1-0.1,0.1-0.3-0.1-0.5c-0.3-0.3-0.7-0.4-0.7-0.4s0.1,0.5,0.3,0.7
	C29.2,4.9,29.4,4.9,29.5,4.8"/>
<path id="path945" class="st0" d="M28.6,3.2c0.1-0.1,0.1-0.3-0.1-0.4c-0.2-0.2-0.7-0.3-0.7-0.3s0.1,0.4,0.3,0.6
	C28.3,3.2,28.5,3.3,28.6,3.2"/>
<path id="path947" class="st0" d="M30.4,6.3c0.2,0.1,0.4-0.1,0.6-0.5c0.2-0.5,0-1.2,0-1.2s-0.5,0.5-0.7,0.9
	C30.2,5.9,30.2,6.2,30.4,6.3"/>
<path id="path949" class="st0" d="M29.5,3.9c0.2-0.1,0.2-0.3,0-0.6c-0.2-0.4-0.7-0.7-0.7-0.7s0,0.6,0.1,0.9
	C29.1,3.9,29.3,4,29.5,3.9"/>
<path id="path951" class="st1" d="M27.4,45.2l2.1,0l-11-14.7l11-14.7h-9.2L10.5,30V15.8H2.9v29.4h7.7V30.9l10.3,14.3H27.4L27.4,45.2
	l1,0"/>
</svg>
