<?xml version="1.0" encoding="utf-8"?>
<!-- Generator: Adobe Illustrator 25.0.1, SVG Export Plug-In . SVG Version: 6.00 Build 0)  -->
<svg version="1.1" id="Layer_1" xmlns="http://www.w3.org/2000/svg" xmlns:xlink="http://www.w3.org/1999/xlink" x="0px" y="0px"
	 viewBox="0 0 595.3 841.9" style="enable-background:new 0 0 595.3 841.9;" xml:space="preserve">
<style type="text/css">
	.st0{fill-rule:evenodd;clip-rule:evenodd;fill:url(#SVGID_1_);stroke:#FBCCCD;stroke-miterlimit:10;}
	.st1{fill:url(#SVGID_2_);}
	.st2{fill:#EFEDED;stroke:#CCCACA;stroke-miterlimit:10;}
	.st3{fill:#D2D2D2;stroke:#A09E9F;stroke-miterlimit:10;}
	.st4{fill:#3F5FA2;}
</style>
<linearGradient id="SVGID_1_" gradientUnits="userSpaceOnUse" x1="50.6496" y1="420.9449" x2="540.0219" y2="420.9449">
	<stop  offset="0" style="stop-color:#FFFFFF"/>
	<stop  offset="6.062800e-02" style="stop-color:#FEF3F3"/>
	<stop  offset="0.1777" style="stop-color:#FDE1E2"/>
	<stop  offset="0.3211" style="stop-color:#FCD5D6"/>
	<stop  offset="0.5164" style="stop-color:#FBCECF"/>
	<stop  offset="1" style="stop-color:#FBCCCD"/>
</linearGradient>
<path class="st0" d="M295.3,10c18.8,62.1,50.8,164.3,120.5,291.3C488.4,433.9,540,523,540,587.2c0,135.1-109.6,244.7-244.7,244.7
	c-135.1,0-244.7-109.5-244.7-244.7c0-64.2,51.6-153.3,124.2-285.8C244.5,174.3,276.5,72.2,295.3,10z"/>
<linearGradient id="SVGID_2_" gradientUnits="userSpaceOnUse" x1="508.225" y1="709.7733" x2="350.606" y2="599.4073">
	<stop  offset="0" style="stop-color:#FFFFFF"/>
	<stop  offset="2.379460e-03" style="stop-color:#FFFEFE"/>
	<stop  offset="0.1149" style="stop-color:#FDE8E9"/>
	<stop  offset="0.2369" style="stop-color:#FCD8D9"/>
	<stop  offset="0.3756" style="stop-color:#FBCFD0"/>
	<stop  offset="0.5652" style="stop-color:#FBCCCD"/>
</linearGradient>
<path class="st1" d="M499.1,457.3c9.9,20.4,18.3,39.2,24.8,56.6c10.4,27.7,16.1,51.9,16.1,73.3c0,123.9-92,226.2-211.5,242.5
	c-10.9,1.5-1.3-121.3-1.3-121.3L499.1,457.3z"/>
<g>
	<polygon class="st2" points="233.6,811.7 233.2,801.8 315.3,785.9 315.8,795.8 	"/>
	<polygon class="st2" points="317,795.6 316.5,785.6 399.7,769.6 400.2,779.5 	"/>
	<polygon class="st2" points="274.9,751.4 274.4,741.5 317.1,733.2 317.5,743.2 	"/>
	<polygon class="st2" points="318.6,743 318.1,733 367,723.6 367.5,733.5 	"/>
	<polygon class="st2" points="205.2,523.9 204.7,514 286.9,498.1 287.3,508 	"/>
	<polygon class="st2" points="288.5,507.8 288,497.8 371.2,481.8 371.7,491.7 	"/>
	<polygon class="st2" points="308.8,562.3 308.3,552.3 392.6,536 393.1,546 	"/>
	<polygon class="st2" points="217.4,580 216.9,570 307.1,552.6 307.5,562.5 	"/>
	<polygon class="st2" points="251.7,632.2 251.2,622.2 312.6,610.4 313.1,620.3 	"/>
	<polygon class="st2" points="314.3,620.1 313.8,610.1 376.2,598.1 376.7,608 	"/>
	<polygon class="st2" points="236,464.7 235.5,454.7 278.1,446.5 278.6,456.5 	"/>
	<polygon class="st2" points="279.7,456.3 279.2,446.3 328.1,436.8 328.5,446.8 	"/>
	<polygon class="st2" points="215.4,351 214.9,341 277.3,328.9 277.8,338.9 	"/>
	<polygon class="st2" points="278.4,338.8 277.9,328.8 340.3,316.7 340.8,326.7 	"/>
	<polygon class="st2" points="286.5,278.3 286,268.4 370.2,252.1 370.7,262.1 	"/>
	<polygon class="st2" points="195.1,296 194.6,286 284.7,268.6 285.2,278.6 	"/>
</g>
<path class="st3" d="M202.1,527.9c-3.8-85.5,156.4-208.3,172.7-303.3l2.1,4.1l0.8,4.2c4.6,96.6-178.4,232.4-174.3,323.7L202.1,527.9
	z"/>
<path class="st3" d="M396.5,548.7c3.4,76.2-119.5,184.5-163,272.3c-0.7,1.5-3.1,0.5-5.6-0.3s-5.1-1.1-5-1.6
	C244.5,725,398.7,603.8,395,520L396.5,548.7z"/>
<path class="st3" d="M395.3,522.9c-4.7-91.1-197.5-154.1-202.2-250.9l1.4,28.7c4.6,96.6,197.3,159.8,202,250.9L395.3,522.9z"/>
<path class="st3" d="M203.3,553.8C208,644.8,400.5,708,405.1,804.7l-1.4-28.7c-4.6-96.6-197.1-159.8-201.8-250.9L203.3,553.8z"/>
<g>
	<g>
		<path class="st4" d="M87,495.5v-6.8h21.8v9H107L87,495.5z M111.8,575.9l20,2.2v6.8H87v-6.8l20-2.2H111.8z M99.4,533.6
			c0-14.9,0-30-0.4-45h19.7c-0.4,14.6-0.4,29.7-0.4,45v8.8c0,13.3,0,27.5,0.4,42.4H99c0.4-14.6,0.4-29.7,0.4-45V533.6z M124.2,547.5
			h-15.3v-7.4h16.5c15.3,0,21.9-9.2,21.9-22.7c0-13.7-7.5-21.2-22.5-21.2h-15.9v-7.5h17.4c27.2,0,39.4,11.6,39.4,28.8
			C165.6,533.8,154.7,547.5,124.2,547.5z"/>
		<path class="st4" d="M182.9,554.4v-7.7c0-8-0.1-11.7-0.4-17.5l-10.2-1.3v-5.4l24.2-9.2l2.3,1.5l1.5,18v21.5c0,9,0.1,23.9,0.4,30.5
			h-18.3C182.8,578.4,182.9,563.4,182.9,554.4z M173.4,579l14.9-2.9h9.2l14.9,2.9v5.9h-39V579z M192.1,535.1h9.6l-2.8,2.5
			c3.6-15.7,13.1-24.2,21.7-24.2c5.3,0,10,2.8,11.5,7.9c-0.2,7.2-3.6,11.2-9.4,11.2c-3.9,0-6.9-1.7-10-5.1l-4.1-4.5l6.5,0.4
			c-7.1,4.2-12.3,11.7-14.9,21.6l-8.1-0.5V535.1z"/>
		<path class="st4" d="M238,550.2c0-23.2,16.2-36.8,35-36.8c18.6,0,35,13.4,35,36.8c0,23.3-15.5,36.8-35,36.8
			C253.3,586.9,238,573.3,238,550.2z M289.1,550.3c0-20-5.7-29.9-16.1-29.9c-10.5,0-16.1,9.8-16.1,29.9c0,20.1,5.6,29.5,16.1,29.5
			C283.3,579.9,289.1,570.4,289.1,550.3z"/>
		<path class="st4" d="M319,495.5v-6.8h21.8v9H339L319,495.5z M340.8,575.9v9H319v-6.8l20-2.2H340.8z M331.4,534
			c0-15,0-30.2-0.4-45.3h19.5c-0.4,14.8-0.4,29.9-0.4,45.3v4.3c0,16.5,0,31.6,0.4,46.6H331c0.4-14.8,0.4-29.9,0.4-45.2V534z
			 M340.8,531.3h15.1c15,0,21.7-5.8,21.7-18.2c0-12-6.5-16.9-19.6-16.9h-17.2v-7.5h22.5c22.3,0,32.6,9.8,32.6,23.1
			c0,11-7.2,20.6-28.7,23.2v-1.3c24.2,1.7,33.9,11.3,33.9,24.6c0,12.7-9.9,26.6-41.7,26.6h-18.7v-7.5h16.4
			c16.1,0,24.5-6.7,24.5-19.2c0-13.3-7.8-19.6-25.2-19.6h-15.7V531.3z"/>
		<path class="st4" d="M420.1,584.9c0.3-6.5,0.4-21.5,0.4-30.5v-6.9c0-8-0.1-12.5-0.4-18.3l-10.4-1.3v-5.4l26.2-9.2l2.3,1.5
			l-0.4,20.3v19.2c0,9,0.1,23.9,0.4,30.5H420.1z M446.8,579v5.9h-36V579l14.7-2.9h7L446.8,579z M418.1,489.5c0-6.1,4.8-10.4,11-10.4
			s11,4.2,11,10.4c0,6.1-4.8,10.4-11,10.4S418.1,495.6,418.1,489.5z"/>
		<path class="st4" d="M456.1,550.2c0-23.2,16.2-36.8,35-36.8c18.6,0,35,13.4,35,36.8c0,23.3-15.5,36.8-35,36.8
			C471.4,586.9,456.1,573.3,456.1,550.2z M507.1,550.3c0-20-5.7-29.9-16.1-29.9c-10.5,0-16.1,9.8-16.1,29.9
			c0,20.1,5.6,29.5,16.1,29.5C501.4,579.9,507.1,570.4,507.1,550.3z"/>
	</g>
</g>
</svg>
